<svg width="63" height="20" viewBox="0 0 63 20" fill="none" xmlns="http://www.w3.org/2000/svg">
<line x1="42.9391" y1="4.17088" x2="63" y2="4.17088" stroke="black" stroke-opacity="0.6"/>
<line x1="42.9391" y1="10.1892" x2="63" y2="10.1892" stroke="black" stroke-opacity="0.6"/>
<line x1="42.9391" y1="16.2074" x2="63" y2="16.2074" stroke="black" stroke-opacity="0.6"/>
<path d="M14.8829 16.6964C14.8781 16.6715 14.4225 14.1569 17.0631 10.4812C17.794 9.4591 18.157 8.23647 18.1025 6.9809C18.048 5.72534 17.5785 4.49832 16.7585 3.46807L16.9913 3.20895C17.6464 2.30304 17.3643 1.03571 16.3603 0.381924C15.3564 -0.271861 14.0088 -0.0657455 13.3538 0.840169L13.1839 1.13791C10.575 0.424736 7.72604 1.2514 6.17596 3.39504C3.52597 7.05976 0.88079 7.55281 0.865757 7.5551C0.655471 7.5873 0.463005 7.67732 0.312621 7.81381C0.162237 7.9503 0.0606683 8.12716 0.020718 8.32207C-0.0192324 8.51699 0.00422498 8.72125 0.0881327 8.9091C0.17204 9.09695 0.312641 9.25999 0.492212 9.37765L3.35041 11.2389C2.7354 12.9163 3.38657 14.8867 5.07621 15.987C6.76585 17.0873 8.93741 16.9551 10.3654 15.8071L13.2236 17.6684C13.5874 17.9053 14.0572 17.9177 14.418 17.7092C14.7787 17.5008 14.9616 17.098 14.8829 16.6964ZM13.9847 3.6672C15.9754 4.96351 16.5398 7.49229 15.2398 9.3011C14.8093 9.90021 14.4526 10.4749 14.1516 11.0243L6.69466 6.16829C7.12567 5.70358 7.56118 5.17899 7.99473 4.57943C8.62352 3.7128 9.60718 3.13011 10.7301 2.9591C11.8529 2.7881 13.0234 3.04274 13.9847 3.6672ZM6.26401 14.3443C5.9468 14.1365 5.69 13.857 5.51939 13.5338C5.34877 13.2107 5.27034 12.8553 5.29195 12.5033L8.42297 14.5422C8.08488 14.6882 7.70737 14.7468 7.32838 14.712C6.9494 14.6773 6.5823 14.5505 6.26401 14.3443ZM3.32964 8.80925C4.08686 8.41322 4.9988 7.80505 5.96435 6.90078L13.696 11.9356C13.1551 13.1165 12.8861 14.1433 12.7672 14.9551L3.32964 8.80925Z" fill="#2AC3FF"/>
<ellipse cx="20.3705" cy="13.6998" rx="6.51981" ry="6.01828" fill="#FAFF00"/>
</svg>
