<svg width="26" height="26" viewBox="0 0 26 26" fill="none" xmlns="http://www.w3.org/2000/svg">
<path d="M17.0635 18.9371C14.9388 20.5885 12.2648 21.3676 9.58605 21.1157C6.90731 20.8638 4.42524 19.5999 2.64524 17.5813C0.865234 15.5627 -0.0788693 12.9412 0.00516452 10.2506C0.0891983 7.55999 1.19505 5.0026 3.09755 3.09913C5.00005 1.19566 7.55615 0.0892437 10.2454 0.00516714C12.9346 -0.0789094 15.5548 0.865674 17.5723 2.64658C19.5899 4.4275 20.8532 6.91082 21.105 9.59092C21.3567 12.271 20.5781 14.9464 18.9275 17.0722L26 24.1219L24.1228 26L17.0768 18.9371H17.0635ZM10.5859 18.5139C11.6276 18.5139 12.659 18.3086 13.6213 17.9098C14.5836 17.511 15.458 16.9265 16.1945 16.1896C16.9311 15.4526 17.5153 14.5778 17.9139 13.615C18.3125 12.6522 18.5177 11.6202 18.5177 10.5781C18.5177 9.53595 18.3125 8.50401 17.9139 7.5412C17.5153 6.57838 16.9311 5.70355 16.1945 4.96664C15.458 4.22973 14.5836 3.64518 13.6213 3.24637C12.659 2.84756 11.6276 2.6423 10.5859 2.6423C8.4823 2.6423 6.46483 3.47839 4.97733 4.96664C3.48984 6.45489 2.65417 8.47339 2.65417 10.5781C2.65417 12.6828 3.48984 14.7013 4.97733 16.1896C6.46483 17.6778 8.4823 18.5139 10.5859 18.5139Z" fill="white"/>
</svg>
